<svg xmlns="http://www.w3.org/2000/svg" xmlns:xlink="http://www.w3.org/1999/xlink" width="40" zoomAndPan="magnify" viewBox="0 0 30 30.000001" height="40" preserveAspectRatio="xMidYMid meet" version="1.0"><defs><clipPath id="10d11c3afd"><path d="M 2.167969 13 L 22 13 L 22 24.960938 L 2.167969 24.960938 Z M 2.167969 13 " clip-rule="nonzero"/></clipPath><clipPath id="207c2e9086"><path d="M 25 14 L 27.570312 14 L 27.570312 15 L 25 15 Z M 25 14 " clip-rule="nonzero"/></clipPath></defs><path fill="#ffffff" d="M 17.320312 7.917969 C 14.25 7.917969 11.671875 10.03125 10.949219 12.878906 C 11.917969 13.164062 12.777344 13.714844 13.433594 14.492188 C 13.789062 14.398438 14.152344 14.347656 14.523438 14.347656 C 16.492188 14.347656 18.195312 15.820312 18.519531 17.753906 C 19.6875 17.941406 20.730469 18.648438 21.351562 19.664062 C 22.894531 18.46875 23.886719 16.589844 23.886719 14.488281 C 23.886719 10.863281 20.941406 7.917969 17.320312 7.917969 Z M 17.320312 7.917969 " fill-opacity="1" fill-rule="nonzero"/><g clip-path="url(#10d11c3afd)"><path fill="#ffffff" d="M 17.730469 18.546875 C 17.785156 17.371094 17.175781 16.222656 16.128906 15.617188 C 15.199219 15.082031 14.085938 15.046875 13.136719 15.5 C 12.011719 13.746094 9.75 13.023438 7.792969 13.855469 C 5.925781 14.648438 4.882812 16.609375 5.21875 18.5625 C 3.769531 18.722656 2.574219 19.863281 2.386719 21.359375 C 2.15625 23.214844 3.703125 24.972656 5.578125 24.972656 C 5.585938 24.972656 17.878906 24.972656 17.878906 24.972656 C 20.039062 24.972656 21.648438 22.695312 20.898438 20.65625 C 20.40625 19.316406 19.109375 18.476562 17.730469 18.546875 Z M 17.730469 18.546875 " fill-opacity="1" fill-rule="nonzero"/></g><g clip-path="url(#207c2e9086)"><path fill="#ffffff" d="M 27.382812 14.070312 L 25.707031 14.070312 C 25.472656 14.070312 25.285156 14.257812 25.285156 14.488281 C 25.285156 14.71875 25.472656 14.90625 25.707031 14.90625 L 27.382812 14.90625 C 27.613281 14.90625 27.800781 14.71875 27.800781 14.488281 C 27.800781 14.257812 27.613281 14.070312 27.382812 14.070312 Z M 27.382812 14.070312 " fill-opacity="1" fill-rule="nonzero"/></g><path fill="#ffffff" d="M 24.136719 7.074219 L 22.953125 8.261719 C 22.789062 8.425781 22.789062 8.691406 22.953125 8.855469 C 23.105469 9.007812 23.378906 9.019531 23.546875 8.855469 L 24.730469 7.667969 C 24.894531 7.503906 24.894531 7.238281 24.730469 7.074219 C 24.566406 6.910156 24.300781 6.910156 24.136719 7.074219 Z M 24.136719 7.074219 " fill-opacity="1" fill-rule="nonzero"/><path fill="#ffffff" d="M 17.320312 6.519531 C 17.550781 6.519531 17.738281 6.332031 17.738281 6.101562 L 17.738281 4.421875 C 17.738281 4.191406 17.550781 4.003906 17.320312 4.003906 C 17.085938 4.003906 16.898438 4.191406 16.898438 4.421875 L 16.898438 6.101562 C 16.898438 6.332031 17.085938 6.519531 17.320312 6.519531 Z M 17.320312 6.519531 " fill-opacity="1" fill-rule="nonzero"/><path fill="#ffffff" d="M 11.089844 8.855469 C 11.246094 9.007812 11.515625 9.023438 11.683594 8.855469 C 11.847656 8.691406 11.847656 8.425781 11.683594 8.261719 L 10.5 7.074219 C 10.335938 6.910156 10.070312 6.910156 9.90625 7.074219 C 9.742188 7.238281 9.742188 7.503906 9.90625 7.667969 C 9.90625 7.667969 11.089844 8.851562 11.089844 8.855469 Z M 11.089844 8.855469 " fill-opacity="1" fill-rule="nonzero"/><path fill="#ffffff" d="M 23.546875 20.121094 C 23.382812 19.957031 23.117188 19.957031 22.953125 20.121094 C 22.789062 20.285156 22.789062 20.550781 22.953125 20.714844 C 22.953125 20.714844 24.136719 21.898438 24.136719 21.902344 C 24.300781 22.0625 24.570312 22.0625 24.730469 21.902344 C 24.894531 21.738281 24.894531 21.472656 24.730469 21.308594 Z M 23.546875 20.121094 " fill-opacity="1" fill-rule="nonzero"/></svg>